HIERARCHY
ROOT Hips
{
  OFFSET 179.979 97.3047 303.174
  CHANNELS 6 Xposition Yposition Zposition Zrotation Xrotation Yrotation
  JOINT Spine
  {
    OFFSET 0.000859786 9.92346 -1.22733
    CHANNELS 3 Zrotation Xrotation Yrotation
    JOINT Spine1
    {
      OFFSET 0 11.732 0
      CHANNELS 3 Zrotation Xrotation Yrotation
      JOINT Spine2
      {
        OFFSET 0 13.4588 0
        CHANNELS 3 Zrotation Xrotation Yrotation
        JOINT Neck
        {
          OFFSET 2.54812e-05 15.0278 0.877907
          CHANNELS 3 Zrotation Xrotation Yrotation
          JOINT Head
          {
            OFFSET 0 10.3218 3.14243
            CHANNELS 3 Zrotation Xrotation Yrotation
            End Site
            {
              OFFSET 0 0 0
            }
          }
        }
        JOINT LeftShoulder
        {
          OFFSET 6.10582 9.10629 0.757062
          CHANNELS 3 Zrotation Xrotation Yrotation
          JOINT LeftArm
          {
            OFFSET 0 12.9223 0
            CHANNELS 3 Zrotation Xrotation Yrotation
            JOINT LeftForeArm
            {
              OFFSET 0 27.4047 0
              CHANNELS 3 Zrotation Xrotation Yrotation
              JOINT LeftHand
              {
                OFFSET -1.28204e-05 27.6145 0
                CHANNELS 3 Zrotation Xrotation Yrotation
                End Site
                {
                  OFFSET 0 0 0
                }
              }
            }
          }
        }
        JOINT RightShoulder
        {
          OFFSET -6.1057 9.10638 0.757076
          CHANNELS 3 Zrotation Xrotation Yrotation
          JOINT RightArm
          {
            OFFSET 0 12.9223 0
            CHANNELS 3 Zrotation Xrotation Yrotation
            JOINT RightForeArm
            {
              OFFSET 0 27.4047 0
              CHANNELS 3 Zrotation Xrotation Yrotation
              JOINT RightHand
              {
                OFFSET 1.28428e-05 27.6145 1.44975e-05
                CHANNELS 3 Zrotation Xrotation Yrotation
                End Site
                {
                  OFFSET 0 0 0
                }
              }
            }
          }
        }
      }
    }
  }
  JOINT LeftUpLeg
  {
    OFFSET 9.12387 -6.65719 -0.0554031
    CHANNELS 3 Zrotation Xrotation Yrotation
    JOINT LeftLeg
    {
      OFFSET 0 40.5994 0
      CHANNELS 3 Zrotation Xrotation Yrotation
      JOINT LeftFoot
      {
        OFFSET 0 42.099 0
        CHANNELS 3 Zrotation Xrotation Yrotation
        JOINT LeftToeBase
        {
          OFFSET 0 15.7216 0
          CHANNELS 3 Zrotation Xrotation Yrotation
          End Site
          {
            OFFSET 0 0 0
          }
        }
      }
    }
  }
  JOINT RightUpLeg
  {
    OFFSET -9.12503 -6.6556 -0.0553527
    CHANNELS 3 Zrotation Xrotation Yrotation
    JOINT RightLeg
    {
      OFFSET 0 40.5994 0
      CHANNELS 3 Zrotation Xrotation Yrotation
      JOINT RightFoot
      {
        OFFSET 0 42.099 0
        CHANNELS 3 Zrotation Xrotation Yrotation
        JOINT RightToeBase
        {
          OFFSET 0 15.7216 0
          CHANNELS 3 Zrotation Xrotation Yrotation
          End Site
          {
            OFFSET 0 0 0
          }
        }
      }
    }
  }
}
MOTION
Frames:	8
Frame Time:	0.0333333
-75.8973 98.6853 -252.635 2.29658 -8.4837 3.48221 -0.251392 -4.83167 -0.0485048 -0.491884 4.28307 -0.085813 -0.484922 10.8775 -0.0865704 -9.39369 7.09933 -3.95465 16.0572 -17.173 -8.1192 -88.8386 -12.3765 90.398 27.2555 4.38484 -8.75804 17.4523 -16.3444 -0.770913 -7.56224 -6.00136 41.0893 90.5307 -16.3868 -90.1157 -28.5129 3.80298 9.8047 -15.2383 -15.0776 0.717134 3.88332 -0.450119 -16.1155 -176.654 -7.54993 0.285904 -2.83857 -8.96974 -7.37063 10.3918 64.9326 -12.0159 -0.965264 26.367 -3.60229 173.509 -9.42613 9.37277 4.13701 -11.2926 10.2058 -20.646 70.3191 21.2101 0.96355 26.3682 3.55537 
-75.8946 98.6854 -252.637 2.29637 -8.48664 3.47958 -0.251392 -4.83167 -0.0485048 -0.491884 4.28307 -0.085813 -0.484922 10.8775 -0.0865704 -9.39268 7.10783 -3.95826 16.0628 -17.1814 -8.12278 -88.8355 -12.3817 90.3973 27.2501 4.38482 -8.75693 17.4523 -16.3446 -0.770914 -7.56992 -6.00553 41.0915 90.5307 -16.3868 -90.1157 -28.509 3.80407 9.80449 -15.2383 -15.0776 0.717134 3.88332 -0.45012 -16.1148 -176.658 -7.5516 0.285863 -2.83663 -8.96974 -7.37056 10.3918 64.9326 -12.0159 -0.965264 26.367 -3.60229 173.506 -9.42622 9.36901 4.13701 -11.2926 10.2058 -20.6445 70.3177 21.2086 0.96355 26.3682 3.55537 
-75.8797 98.6857 -252.648 2.29501 -8.50444 3.46323 -0.251392 -4.83167 -0.0485048 -0.492297 4.2861 -0.0801986 -0.47991 10.8806 -0.082118 -9.38779 7.14381 -3.97848 16.096 -17.2294 -8.14273 -88.8186 -12.4174 90.3939 27.2323 4.39297 -8.70546 17.4474 -16.3973 -0.771122 -7.60735 -6.04274 41.0209 90.5307 -16.3868 -90.1157 -28.5038 3.8249 9.79408 -15.2357 -15.0837 0.717155 3.88344 -0.450153 -16.1005 -176.674 -7.55998 0.285653 -2.8268 -8.9751 -7.37649 10.4024 64.9321 -12.0255 -0.965264 26.367 -3.60229 173.494 -9.4344 9.34764 4.13701 -11.2926 10.2058 -20.6363 70.3093 21.2056 0.96355 26.3682 3.55537 
-75.8652 98.6861 -252.66 2.29419 -8.52881 3.44787 -0.251387 -4.82632 -0.0485044 -0.492657 4.29679 -0.0751734 -0.474241 10.8913 -0.0784764 -9.38375 7.16641 -3.99922 16.1227 -17.2742 -8.16296 -88.8044 -12.4501 90.3904 27.1993 4.39632 -8.64639 17.4336 -16.4406 -0.771294 -7.6119 -6.11659 40.8888 90.5307 -16.3868 -90.1157 -28.4906 3.82293 9.75488 -15.2267 -15.0993 0.717208 3.88364 -0.450213 -16.0741 -176.69 -7.57427 0.285463 -2.82002 -8.98424 -7.38471 10.4175 64.9314 -12.0392 -0.965264 26.367 -3.60229 173.481 -9.44816 9.33224 4.13728 -11.2941 10.2058 -20.6292 70.3017 21.2041 0.96355 26.3682 3.55537 
-75.8498 98.6864 -252.676 2.29356 -8.55242 3.43423 -0.251381 -4.81929 -0.0485039 -0.493146 4.31076 -0.0683855 -0.469626 10.9053 -0.0726927 -9.37815 7.18885 -4.01526 16.1438 -17.3099 -8.17653 -88.7913 -12.4723 90.3881 27.1727 4.40559 -8.6468 17.4079 -16.4547 -0.77135 -7.58034 -6.23984 40.7622 90.5307 -16.393 -90.1158 -28.48 3.80488 9.71419 -15.2164 -15.1217 0.717283 3.88071 -0.460944 -16.0563 -176.708 -7.58886 0.28524 -2.81492 -8.99101 -7.39554 10.4434 64.9301 -12.057 -0.965264 26.367 -3.60229 173.467 -9.45516 9.3222 4.13312 -11.3043 10.206 -20.6057 70.298 21.1889 0.96355 26.3682 3.55537 
-75.8335 98.6867 -252.696 2.29295 -8.56629 3.4247 -0.251376 -4.81371 -0.0485035 -0.493686 4.32199 -0.0610102 -0.469004 10.9165 -0.0652372 -9.3494 7.22149 -4.02523 16.1756 -17.3321 -8.18034 -88.7813 -12.4909 90.386 27.1532 4.41101 -8.67499 17.3925 -16.4499 -0.771331 -7.54584 -6.38962 40.5903 90.5305 -16.4131 -90.116 -28.4591 3.7702 9.70336 -15.2281 -15.1158 0.717263 3.87407 -0.484425 -16.043 -176.728 -7.59788 0.278003 -2.81228 -8.98739 -7.40464 10.4707 64.9217 -12.0681 -0.965264 26.367 -3.60229 173.452 -9.44843 9.32219 4.12556 -11.3171 10.2061 -20.5767 70.2927 21.1699 0.96355 26.3682 3.55537 
-75.8185 98.6869 -252.717 2.29285 -8.5675 3.4235 -0.251374 -4.81094 -0.0485033 -0.493793 4.3275 -0.0595056 -0.470044 10.922 -0.0632506 -9.31384 7.2612 -4.0328 16.2226 -17.342 -8.18299 -88.7778 -12.5153 90.384 27.1315 4.39787 -8.70516 17.4026 -16.4345 -0.77127 -7.51603 -6.52384 40.3748 90.5268 -16.4308 -90.1172 -28.4554 3.78005 9.72694 -15.2263 -15.1221 0.717285 3.87112 -0.494718 -16.0422 -176.746 -7.59974 0.263288 -2.80751 -8.97049 -7.40349 10.4829 64.9066 -12.0598 -0.965264 26.367 -3.60229 173.441 -9.42982 9.32538 4.11336 -11.3266 10.2059 -20.5462 70.2843 21.1509 0.96355 26.3682 3.55537 
-75.8076 98.687 -252.742 2.29362 -8.56706 3.42884 -0.251371 -4.80771 -0.0485031 -0.493697 4.33398 -0.0606885 -0.473244 10.9285 -0.0635779 -9.3006 7.29484 -4.04672 16.2611 -17.3475 -8.19838 -88.7768 -12.5541 90.3808 27.1302 4.38067 -8.77245 17.4186 -16.4125 -0.771182 -7.4694 -6.63779 40.2297 90.5139 -16.4391 -90.121 -28.4419 3.78317 9.75438 -15.2236 -15.1051 0.717227 3.87153 -0.493081 -16.048 -176.755 -7.59287 0.244186 -2.8023 -8.9551 -7.3908 10.4741 64.8899 -12.0318 -0.965264 26.367 -3.60229 173.437 -9.41175 9.33018 4.09979 -11.3301 10.2055 -20.5272 70.2717 21.1418 0.96355 26.3682 3.55537 
